<svg id="Layer_1" data-name="Layer 1" xmlns="http://www.w3.org/2000/svg" viewBox="0 0 350.63 250"><title>Artboard 1</title><g id="Ionic"><path d="M221.87,78.93A45.12,45.12,0,1,0,267,124.05h0A45.17,45.17,0,0,0,221.87,78.93Z" style="fill:#478aff"/><circle cx="286.65" cy="62.37" r="20.55" style="fill:#478aff"/><path d="M312,83l-.86-1.88-1.34,1.56a31,31,0,0,1-12.41,8.54l-1.34.49.53,1.34a80.93,80.93,0,1,1-40-42l1.27.6.55-1.34a31,31,0,0,1,9.13-12L269.09,37l-1.85-1a98,98,0,0,0-45.39-11,99,99,0,1,0,90.09,57.91Z" style="fill:#478aff"/></g><g id="Angular"><polygon points="122.86 25 122.86 25 122.86 25 29.76 58.2 43.96 181.3 122.86 225 122.86 225 122.86 225 201.76 181.3 215.96 58.2 122.86 25" style="fill:#dd0031"/><polygon points="122.86 25 122.86 47.2 122.86 47.1 122.86 148.4 122.86 148.4 122.86 225 122.86 225 201.76 181.3 215.96 58.2 122.86 25" style="fill:#c3002f"/><path d="M122.86,47.1,64.66,177.6h21.7l11.7-29.2h49.4l11.7,29.2h21.7l-58-130.5Zm17,83.3h-34l17-40.9Z" style="fill:#fff"/></g></svg>